<?xml version="1.0" standalone="no"?>
<!DOCTYPE svg PUBLIC "-//W3C//DTD SVG 20010904//EN"
 "http://www.w3.org/TR/2001/REC-SVG-20010904/DTD/svg10.dtd">
<svg version="1.0" xmlns="http://www.w3.org/2000/svg"
 width="558.000000pt" height="558.000000pt" viewBox="0 0 558.000000 558.000000"
 preserveAspectRatio="xMidYMid meet">
<metadata>
Created by potrace 1.11, written by Peter Selinger 2001-2013
</metadata>
<g transform="translate(0.000000,558.000000) scale(0.100000,-0.100000)"
fill="#000000" stroke="none">
<path d="M635 5573 c-66 -9 -224 -64 -284 -100 -83 -49 -195 -161 -244 -244
-21 -35 -52 -109 -70 -164 l-32 -100 0 -2175 0 -2175 32 -100 c42 -129 91
-212 179 -299 87 -88 170 -137 299 -179 l100 -32 2175 0 2175 0 100 32 c129
42 212 91 299 179 88 87 137 170 179 299 l32 100 0 2175 0 2175 -32 100 c-42
129 -91 212 -179 299 -85 86 -168 136 -294 179 l-95 32 -2155 1 c-1185 1
-2168 -1 -2185 -3z m1005 -1484 c86 -13 252 -55 317 -79 133 -49 323 -163 391
-233 l31 -32 -145 -195 c-80 -107 -148 -198 -152 -202 -4 -3 -44 22 -90 56
-151 115 -335 183 -554 208 -194 22 -353 -23 -418 -117 -34 -49 -48 -112 -36
-159 9 -37 60 -91 113 -120 61 -35 156 -64 423 -130 387 -95 552 -163 703
-291 152 -128 226 -318 214 -550 -19 -372 -240 -627 -632 -728 -151 -39 -267
-50 -460 -44 -264 9 -460 56 -670 161 -131 66 -200 112 -295 198 l-51 46 52
74 c73 102 166 233 208 295 39 57 53 63 73 35 33 -47 185 -155 290 -207 154
-76 273 -106 448 -112 117 -5 148 -2 219 16 99 25 157 56 204 111 87 102 70
231 -42 307 -48 33 -173 77 -301 108 -272 64 -496 128 -587 166 -198 84 -342
205 -408 344 -56 116 -68 181 -63 335 4 120 8 144 35 216 114 303 407 498 808
538 62 6 303 -3 375 -15z m2577 10 c221 -30 416 -111 581 -239 102 -79 148
-126 231 -235 47 -62 58 -82 48 -92 -6 -6 -73 -44 -147 -83 -74 -40 -171 -93
-214 -118 -75 -44 -80 -45 -90 -27 -24 43 -135 150 -202 195 -269 183 -648
155 -912 -67 -104 -89 -203 -250 -244 -402 -18 -63 -21 -105 -21 -241 0 -193
15 -264 84 -401 117 -234 305 -372 566 -419 206 -37 491 31 639 153 l34 28 0
150 0 149 -335 0 -335 0 0 240 0 240 610 0 610 0 0 -488 0 -487 -29 -36 c-38
-45 -177 -163 -256 -216 -141 -95 -323 -167 -525 -210 -119 -25 -430 -25 -547
0 -229 49 -431 134 -578 244 -96 71 -236 217 -294 305 -94 142 -168 331 -197
503 -20 119 -22 346 -5 460 56 362 244 670 529 863 68 47 216 123 292 151 80
29 244 69 325 80 101 12 291 13 382 0z"/>
</g>
</svg>
