<?xml version="1.0" encoding="UTF-8"?>
<svg width="305px" height="150px" viewBox="0 0 305 150" version="1.1" xmlns="http://www.w3.org/2000/svg" xmlns:xlink="http://www.w3.org/1999/xlink">
    <!-- Generator: Sketch 52.6 (67491) - http://www.bohemiancoding.com/sketch -->
    <title>marsbased</title>
    <desc>Created with Sketch.</desc>
    <defs>
        <polygon id="path-1" points="0.240552013 0.610612245 8.37198403 0.610612245 8.37198403 8.77616327 0.240552013 8.77616327"></polygon>
    </defs>
    <g id="marsbased" stroke="none" stroke-width="1" fill="none" fill-rule="evenodd">
        <g transform="translate(15.000000, 56.000000)">
            <polygon id="Fill-1" fill="#0C0909" points="24.2692525 9 18.0179111 25.3241459 11.7658674 9 0 9 0 34 8.70973406 34 8.70973406 18.0653504 14.5403391 34 21.3901235 34 27.255146 17.9945329 27.255146 34 36 34 36 9"></polygon>
            <path d="M52.5172406,15.9408249 L49.7235718,24.4042264 L55.3791822,24.4042264 L52.5172406,15.9408249 Z M58.5169737,34 L57.2073768,29.9279927 L47.8967565,29.9279927 L46.5857804,34 L37,34 L47.5167734,9 L57.4480557,9 L68,34 L58.5169737,34 Z" id="Fill-2" fill="#0C0909"></path>
            <g id="Group-20" transform="translate(70.000000, 0.000000)">
                <path d="M18.555606,15.3335837 C17.9675285,14.4662367 17.0000685,14.3274612 16.0671607,14.3274612 L8.81051982,14.3274612 L8.81051982,18.8376653 L15.3761179,18.8376653 C17.0353117,18.8376653 17.8991153,18.629502 18.4519495,17.9703184 C18.9011274,17.4152163 18.9356795,16.8601143 18.9356795,16.5825633 C18.9356795,16.3744 18.9011274,15.819298 18.555606,15.3335837 Z M18.4858106,33.2717061 L13.4418889,24.3546857 L8.81051982,24.3546857 L8.81051982,33.2717061 L0.034275725,33.2717061 L0.034275725,8.77574694 L18.0020807,8.77574694 C21.2852252,8.77574694 24.4294701,9.01860408 26.3996333,12.1417469 C26.8481201,12.8703184 27.6428193,14.3274612 27.6428193,16.5478694 C27.6428193,17.6927673 27.4016454,20.9546857 24.3265047,22.6546857 C23.7384273,23.0016245 23.2892494,23.1750939 22.0453723,23.4873388 L28.1272404,33.2717061 L18.4858106,33.2717061 Z" id="Fill-3" fill="#0C0909"></path>
                <path d="M53.6948581,30.0100653 C51.6562817,32.5774122 47.9937546,33.9998612 41.3251912,33.9998612 C35.5888446,33.9998612 32.3409432,32.6468 30.5435408,30.5998612 C28.885729,28.7610857 28.7129683,26.8529224 28.5740687,25.9508816 L37.1782431,25.7427184 C37.2473474,26.158351 37.4201081,26.8182286 38.2839117,27.4427184 C39.1131631,28.0672082 40.322488,28.5182286 42.6029294,28.5182286 C43.5019762,28.5182286 44.6076447,28.4141469 45.4368961,27.9978204 C46.1624911,27.6161878 46.8189818,26.9223102 46.8189818,26.0549633 C46.8189818,25.4998612 46.5771168,24.7705959 45.4368961,24.2855755 C44.8488187,24.0420245 43.3983197,23.7644735 41.7045737,23.4522286 C39.8042059,23.0705959 37.8692859,22.758351 35.9689181,22.2379429 C33.8957896,21.6481469 31.9954218,20.9195755 30.7515447,19.0114122 C29.8524979,17.6236571 29.7833937,16.235902 29.7833937,15.6114122 C29.7833937,14.2930449 30.1634672,13.0780653 30.8545101,12.0025551 C32.4445996,9.43520816 35.8300185,7.73520816 42.0846473,7.73520816 C44.2275711,7.73520816 47.6482332,8.01275918 49.6868096,8.70663673 C50.5506131,8.98418776 51.3460035,9.40051429 52.0709074,9.95561633 C54.386592,11.6556163 54.7321134,13.8066367 54.9048741,14.8821469 L46.3691129,15.3685551 C46.2661475,15.0910041 46.1963522,14.8134531 46.0588347,14.5705959 C45.5053094,13.6331673 44.2621233,13.0780653 42.0500951,13.0780653 C41.9118866,13.0780653 39.8042059,13.0433714 38.7676416,13.9114122 C38.2839117,14.2930449 38.2148074,14.8481469 38.2148074,15.0910041 C38.2148074,15.3685551 38.2839117,15.8195755 38.7676416,16.2012082 C39.9769666,17.1726367 44.2959844,17.7624327 48.6502453,18.7685551 C51.4489688,19.4277388 52.7619502,20.1563102 53.6948581,21.1624327 C54.3167966,21.7869224 55.3194998,23.0705959 55.3194998,25.3610857 C55.3194998,27.0263918 54.7321134,28.7263918 53.6948581,30.0100653" id="Fill-5" fill="#0C0909"></path>
                <path d="M77.9845993,15.1601143 C77.5361125,14.396849 76.7061701,14.2927673 75.9114708,14.2927673 L67.20364,14.2927673 L67.20364,18.1090939 L75.2895323,18.1090939 C76.187888,18.1090939 77.4663172,18.1784816 78.0198425,17.1723592 C78.1573601,16.8948082 78.2610165,16.5131755 78.2610165,16.2009306 C78.2610165,16.0274612 78.2610165,15.6111347 77.9845993,15.1601143 M76.9825872,23.417951 L67.1352267,23.417951 L67.1352267,27.685298 L76.3267876,27.685298 C76.3952008,27.685298 77.0862437,27.685298 77.5361125,27.5812163 C78.64109,27.3383592 79.1939243,26.5404 79.1939243,25.4301959 C79.1939243,23.4526449 77.5699736,23.417951 76.9825872,23.417951 M86.4505652,30.3220327 C84.204676,33.0281551 80.2657318,33.2717061 77.1553479,33.2717061 L58.3921527,33.2717061 L58.3921527,8.77574694 L78.8836461,8.77574694 C81.3368482,8.77574694 84.3428845,8.94921633 85.7940745,11.3437878 C86.1395959,11.8988898 86.6233259,12.9397061 86.6233259,14.5009306 C86.6233259,15.0560327 86.5887738,16.6172571 85.5867616,17.9009306 C85.0339274,18.5948082 83.9282588,19.5315429 81.9587867,20.0172571 C83.479081,20.2601143 84.8611667,20.5029714 86.0704916,21.5437878 C87.5216816,22.7587673 87.867203,24.2506041 87.867203,26.0546857 C87.867203,26.817951 87.8326509,28.6220327 86.4505652,30.3220327" id="Fill-7" fill="#0C0909"></path>
                <path d="M104.209122,15.5765102 L101.409708,23.8690408 L107.07695,23.8690408 L104.209122,15.5765102 Z M110.221195,33.2710816 L108.908905,29.2812857 L99.5791353,29.2812857 L98.2654629,33.2710816 L88.6599674,33.2710816 L99.1983707,8.77581633 L109.150079,8.77581633 L119.723725,33.2710816 L110.221195,33.2710816 Z" id="Fill-9" fill="#0C0909"></path>
                <path d="M145.118997,30.0100653 C143.08042,32.5774122 139.417893,33.9998612 132.74933,33.9998612 C127.012983,33.9998612 123.765082,32.6468 121.96768,30.5998612 C120.309868,28.7610857 120.137107,26.8529224 119.998207,25.9508816 L128.602382,25.7427184 C128.671486,26.158351 128.844247,26.8182286 129.70805,27.4427184 C130.537302,28.0672082 131.746627,28.5182286 134.027068,28.5182286 C134.926115,28.5182286 136.031783,28.4141469 136.861035,27.9978204 C137.58663,27.6161878 138.243121,26.9223102 138.243121,26.0549633 C138.243121,25.4998612 138.001256,24.7705959 136.861035,24.2855755 C136.272957,24.0420245 134.822458,23.7644735 133.128712,23.4522286 C131.228345,23.0705959 129.293425,22.758351 127.393057,22.2379429 C125.319928,21.6481469 123.419561,20.9195755 122.175683,19.0114122 C121.276637,17.6236571 121.207532,16.235902 121.207532,15.6114122 C121.207532,14.2930449 121.587606,13.0780653 122.278649,12.0025551 C123.868738,9.43520816 127.254157,7.73520816 133.508786,7.73520816 C135.65171,7.73520816 139.072372,8.01275918 141.110948,8.70663673 C141.974752,8.98418776 142.770142,9.40051429 143.495046,9.95561633 C145.810731,11.6556163 146.156252,13.8066367 146.329013,14.8821469 L137.793252,15.3685551 C137.690286,15.0910041 137.620491,14.8134531 137.482973,14.5705959 C136.929448,13.6331673 135.686262,13.0780653 133.474234,13.0780653 C133.336025,13.0780653 131.228345,13.0433714 130.19178,13.9114122 C129.70805,14.2930449 129.638946,14.8481469 129.638946,15.0910041 C129.638946,15.3685551 129.70805,15.8195755 130.19178,16.2012082 C131.401105,17.1726367 135.720123,17.7624327 140.074384,18.7685551 C142.873108,19.4277388 144.186089,20.1563102 145.118997,21.1624327 C145.740935,21.7869224 146.743639,23.0705959 146.743639,25.3610857 C146.743639,27.0263918 146.156252,28.7263918 145.118997,30.0100653" id="Fill-11" fill="#0C0909"></path>
                <polygon id="Fill-13" fill="#0C0909" points="149.782154 33.2714286 149.782154 8.77616327 175.525573 8.77616327 175.525573 14.2577959 158.524537 14.2577959 158.524537 18.2829796 174.246453 18.2829796 174.246453 23.7993061 158.524537 23.7993061 158.524537 27.7204082 175.836542 27.7204082 175.836542 33.2714286"></polygon>
                <path d="M196.359409,15.923449 C194.528145,14.5356939 191.936735,14.6050816 191.349348,14.6050816 L187.167848,14.6050816 L187.167848,27.7200612 L191.625074,27.7200612 C192.109495,27.7200612 192.627778,27.6853673 193.14606,27.6159796 C196.152096,27.2343469 197.223212,25.8812857 197.81129,24.6323061 C198.570746,23.0710816 198.605298,21.7520204 198.605298,21.0928367 C198.605298,20.3295714 198.502333,17.5887551 196.359409,15.923449 M204.548958,29.3159796 C204.134332,29.8363878 203.270528,30.7037347 201.818647,31.5363878 C201.300365,31.8139388 200.195388,32.4037347 198.708955,32.7860612 C197.465769,33.0976122 196.566722,33.2710816 194.11352,33.2710816 L178.633469,33.2710816 L178.633469,8.77581633 L192.488878,8.77581633 C193.457029,8.77581633 194.424489,8.8105102 195.391949,8.87989796 C201.059191,9.36561224 203.546254,11.7601837 204.998135,13.8765102 C207.071264,16.8601837 207.140368,19.9826327 207.140368,21.301 C207.140368,22.411898 207.036712,26.4016939 204.548958,29.3159796" id="Fill-15" fill="#0C0909"></path>
                <g id="Group-19" transform="translate(210.077024, 0.000000)">
                    <mask id="mask-2" fill="white">
                        <use xlink:href="#path-1"></use>
                    </mask>
                    <g id="Clip-18"></g>
                    <path d="M8.37205314,4.69338776 C8.37205314,6.94779592 6.55184629,8.77616327 4.30595705,8.77616327 C2.06075886,8.77616327 0.240552013,6.94779592 0.240552013,4.69338776 C0.240552013,2.43897959 2.06075886,0.610612245 4.30595705,0.610612245 C6.55184629,0.610612245 8.37205314,2.43897959 8.37205314,4.69338776" id="Fill-17" fill="#0C0909" mask="url(#mask-2)"></path>
                </g>
            </g>
        </g>
    </g>
</svg>